<svg width="77" height="79" viewBox="0 0 77 79" fill="none" xmlns="http://www.w3.org/2000/svg">
<path d="M38.5 7.40618C33.3314 4.51284 26.0693 0 19.25 0C9.14375 0 0 6.15701 0 24.6873C0 48.8759 5.082 66.2113 12.8542 76.7133C15.6117 80.446 22.3348 79.2857 25.2079 75.548C27.1232 73.053 29.1477 68.443 31.2812 61.7182C32.6865 57.9114 35.574 54.2923 38.5 54.312C41.3971 54.312 44.3231 57.9509 45.7188 61.7182C47.8523 68.443 49.8767 73.0513 51.7921 75.5431C54.6652 79.2906 61.4171 80.446 64.1458 76.7133C71.918 66.2113 77 48.8808 77 24.6873C77 6.22119 67.8177 0 57.75 0C50.9018 0 43.6975 4.49802 38.5 7.40618ZM38.5 7.40618L52.9375 14.8124L38.5 7.40618Z" fill="white"/>
</svg>
