<svg width="81" height="89" viewBox="0 0 81 89" fill="none" xmlns="http://www.w3.org/2000/svg">
<path fill-rule="evenodd" clip-rule="evenodd" d="M40.5032 0C34.1897 0 26.4677 2.53649 21.9092 4.2794C19.6862 5.12984 18.5724 7.78253 19.3082 10.2374L24.1412 26.3587C22.8838 29.3719 22.3358 32.6839 22.5476 35.9905C22.7594 39.297 23.7241 42.4921 25.3532 45.282C26.9823 48.0719 29.2235 50.3672 31.8707 51.9569C34.5179 53.5466 37.4864 54.3797 40.5032 54.3797C43.52 54.3797 46.4884 53.5466 49.1357 51.9569C51.7829 50.3672 54.024 48.0719 55.6531 45.282C57.2822 42.4921 58.247 39.297 58.4588 35.9905C58.6706 32.6839 58.1226 29.3719 56.8652 26.3587L61.6982 10.2399C62.4339 7.78253 61.3202 5.12984 59.0972 4.28187C54.5364 2.53402 46.8167 0 40.5032 0ZM27.8582 30.7172C36.3114 26.9026 44.6949 26.9026 53.1482 30.7172C53.2832 30.7782 53.4227 30.8244 53.5667 30.8557C54.0863 33.0489 54.1416 35.3438 53.7284 37.5641C53.3151 39.7845 52.4444 41.8713 51.1829 43.6643C49.9214 45.4573 48.3028 46.9089 46.4513 47.9076C44.5998 48.9064 42.5646 49.4257 40.5021 49.4257C38.4395 49.4257 36.4043 48.9064 34.5528 47.9076C32.7013 46.9089 31.0827 45.4573 29.8212 43.6643C28.5597 41.8713 27.689 39.7845 27.2758 37.5641C26.8625 35.3438 26.9178 33.0489 27.4374 30.8557C27.5814 30.8244 27.7217 30.7782 27.8582 30.7172ZM42.7532 12.3611H47.2532V17.3055H42.7532V22.2499H38.2532V17.3055H33.7532V12.3611H38.2532V7.41664H42.7532V12.3611Z" fill="white"/>
<path fill-rule="evenodd" clip-rule="evenodd" d="M37.9125 64.755L24.48 54.389C24.48 54.389 0 62.7772 0 72.849V89H81V72.849C81 62.7772 56.5223 54.389 56.5223 54.389L43.0853 64.755C42.328 65.339 41.4252 65.6524 40.5 65.6524C39.5748 65.6524 38.6698 65.339 37.9125 64.755ZM58.5 64.2779H63V69.2223H67.5V74.1667H63V79.1111H58.5V74.1667H54V69.2223H58.5V64.2779Z" fill="white"/>
</svg>
