<svg width="75" height="75" viewBox="0 0 75 75" fill="none" xmlns="http://www.w3.org/2000/svg">
<path fill-rule="evenodd" clip-rule="evenodd" d="M26.7804 0.000216245C24.2411 0.000216245 21.6375 0.821617 19.5857 2.5181C17.5018 4.23607 16.0607 6.81301 16.0607 9.78723V18.071H8.03571C3.69643 18.071 0 21.4747 0 25.9092V67.1618C0 71.5909 3.69643 75 8.03571 75H66.9643C71.3036 75 75 71.5909 75 67.1618V25.9092C75 21.4801 71.3036 18.071 66.9643 18.071H58.9393V9.78723C58.9393 6.81838 57.4982 4.23607 55.4143 2.5181C53.377 0.873457 50.8357 -0.0159382 48.2196 0.000216245H26.7804ZM48.225 18.071V10.7375H26.775V18.071H48.225ZM23.4375 46.5355C23.4375 44.6833 24.9375 43.1801 26.7857 43.1801H34.1518V35.7982C34.1518 34.9083 34.5045 34.0549 35.1325 33.4256C35.7604 32.7964 36.612 32.4429 37.5 32.4429C38.388 32.4429 39.2396 32.7964 39.8675 33.4256C40.4955 34.0549 40.8482 34.9083 40.8482 35.7982V43.1801H48.2143C49.1023 43.1801 49.9539 43.5336 50.5818 44.1629C51.2097 44.7921 51.5625 45.6456 51.5625 46.5355C51.5625 47.4254 51.2097 48.2789 50.5818 48.9081C49.9539 49.5374 49.1023 49.8909 48.2143 49.8909H40.8482V57.2728C40.8482 58.1627 40.4955 59.0161 39.8675 59.6454C39.2396 60.2747 38.388 60.6282 37.5 60.6282C36.612 60.6282 35.7604 60.2747 35.1325 59.6454C34.5045 59.0161 34.1518 58.1627 34.1518 57.2728V49.8909H26.7857C25.8977 49.8909 25.0461 49.5374 24.4182 48.9081C23.7903 48.2789 23.4375 47.4254 23.4375 46.5355Z" fill="white"/>
</svg>
