<svg width="97" height="68" viewBox="0 0 97 68" fill="none" xmlns="http://www.w3.org/2000/svg">
<path d="M45.8408 14.134C48.2067 14.1356 50.4765 13.3918 52.1511 12.0663C53.8256 10.7408 54.7677 8.94209 54.7701 7.06579C54.7691 6.1368 54.5373 5.21708 54.088 4.35915C53.6386 3.50123 52.9805 2.72193 52.1513 2.06576C51.3221 1.40959 50.338 0.889427 49.2552 0.534978C48.1724 0.180529 47.0122 -0.00125686 45.8408 6.54039e-06C40.9079 6.54039e-06 36.91 3.16332 36.91 7.06579C36.9136 8.942 37.8563 10.7403 39.5308 12.0657C41.2054 13.391 43.475 14.1349 45.8408 14.134ZM73.0484 61.9166H1.85967C-0.14533 61.9166 0.0607767 63.1666 0.0607767 63.1666V65.247C0.0607767 65.247 -0.121082 67.95 3.37971 67.95H92.5164C96.04 67.95 95.849 65.3095 95.849 65.3095V59.5477C95.849 59.5477 95.5505 57.7257 92.8483 57.7257H84.1615C81.1836 57.7257 78.7224 61.9154 73.0499 61.9154L73.0484 61.9166ZM79.9712 49.1504C79.9712 52.6622 83.575 55.5143 88.0154 55.5143C92.4558 55.5143 96.0672 52.661 96.0672 49.1504C96.0672 45.6253 92.4543 42.7841 88.0154 42.7841C86.96 42.7828 85.9146 42.9465 84.939 43.2659C83.9634 43.5852 83.0767 44.0539 82.3296 44.6451C81.5826 45.2364 80.9897 45.9386 80.5851 46.7116C80.1804 47.4847 79.9718 48.3134 79.9712 49.1504ZM53.6759 37.0079C53.4085 37.6553 52.9604 38.2465 52.365 38.7376C51.7697 39.2287 51.0424 39.607 50.2372 39.8443L43.0735 41.9512L45.7165 44.0316H57.8101L57.8026 29.3508L53.7547 36.919C53.735 36.955 53.6986 36.9755 53.6744 37.0079H53.6759Z" fill="white"/>
<path d="M71.0454 47.5204H46.0398L40.0111 42.8523L35.8147 44.0782C32.7019 44.9616 28.9117 43.6131 27.7432 41.1601C27.0552 39.6373 27.1507 37.9367 28.2994 36.6976C27.7857 36.6795 13.1339 36.6976 13.1339 36.6976C12.5554 36.6961 11.9823 36.7851 11.4472 36.9594C10.912 37.1337 10.4255 37.3898 10.0152 37.7133C9.605 38.0367 9.27913 38.4211 9.05624 38.8444C8.83335 39.2678 8.71782 39.7218 8.71623 40.1806C8.71623 42.112 10.697 43.6215 13.1339 43.6215H28.0509L33.9658 50.7233L3.42716 52.6691C2.3702 52.8606 1.43924 53.3541 0.812188 54.0555C0.185138 54.7569 -0.0940268 55.617 0.028045 56.4713C0.150117 57.3256 0.664864 58.1143 1.47392 58.6867C2.28297 59.259 3.32958 59.5749 4.41374 59.5739L38.6775 59.5775C38.0584 58.7929 37.7282 57.8866 37.7243 56.961C37.7255 55.6311 38.3921 54.356 39.5779 53.4157C40.7636 52.4753 42.3715 51.9466 44.0484 51.9456H57.7576L68.8676 50.1056L69.4844 52.4456L58.0682 54.3361H44.0469C43.1705 54.3291 42.3264 54.5985 41.7005 55.085C41.0745 55.5715 40.7179 56.2353 40.709 56.9304C40.7002 57.6254 41.0399 58.2948 41.6533 58.7912C42.2668 59.2876 43.1038 59.5705 43.9802 59.5775L71.1045 59.5799C73.1137 59.5729 75.0377 58.9351 76.4555 57.806C77.8733 56.6769 78.6695 55.1484 78.6698 53.5549C78.6696 52.7614 78.4722 51.9758 78.0888 51.2428C77.7054 50.5099 77.1436 49.8441 76.4354 49.2835C75.7273 48.7229 74.8867 48.2786 73.9619 47.9758C73.037 47.6731 72.046 47.5191 71.0454 47.5204Z" fill="white"/>
<path d="M35.2833 41.8876C34.4344 42.1816 33.4733 42.1967 32.6103 41.9298C31.7474 41.6628 31.053 41.1356 30.6793 40.4634C30.4939 40.1299 30.3934 39.7707 30.3836 39.4064C30.3737 39.042 30.4547 38.6797 30.6218 38.3403C30.7889 38.0008 31.039 37.6908 31.3575 37.4282C31.6761 37.1656 32.0569 36.9554 32.4781 36.8097L45.2098 33.019L49.144 25.5771L46.5798 24.8259L43.2351 31.1982L33.5435 34.0286V26.2381L24.0702 34.4433L13.3496 34.4348C13.3496 34.4348 32.1099 18.1255 32.6964 17.6376C33.4738 17.0258 35.2515 16.0114 38.6038 16.0114H50.6504C57.4944 16.0114 58.8114 21.4222 57.411 24.2226L51.1111 36.3398C50.9197 36.6879 50.6413 37.0017 50.2928 37.2621C49.9443 37.5226 49.5329 37.7244 49.0834 37.8554L35.2833 41.8852V41.8876Z" fill="white"/>
</svg>
