<svg width="86" height="90" viewBox="0 0 86 90" fill="none" xmlns="http://www.w3.org/2000/svg">
<path d="M26.1381 30.0698L26.6984 30.0252C26.9015 30.0052 27.0957 29.9374 27.2628 29.8283L27.2587 29.832C27.795 31.5488 28.4514 33.3547 29.2719 35.2462C30.3244 37.721 31.361 39.7537 32.5216 41.7157L32.3615 41.4184C32.2655 42.771 32.1494 44.1608 31.9973 45.506C31.9293 46.2994 31.7559 47.082 31.4811 47.8359L31.5011 47.769C31.453 47.7876 31.385 55.4983 31.385 55.4983C31.3879 57.8905 32.2569 60.2123 33.8523 62.0906C35.4478 63.9689 37.677 65.2946 40.1818 65.8548L40.2619 65.8696C40.3712 65.6002 40.5667 65.3682 40.8221 65.2048C41.0774 65.0414 41.3805 64.9544 41.6906 64.9555H43.9879C44.2947 64.9593 44.5934 65.047 44.8469 65.2076C45.1003 65.3682 45.2971 65.5946 45.4127 65.8585L45.4167 65.8696C47.9424 65.3255 50.1967 64.0066 51.8154 62.126C53.4342 60.2455 54.3227 57.9131 54.3376 55.5057C54.3376 55.5057 54.1975 47.8248 54.1254 47.7728C53.8831 47.0554 53.7195 46.3171 53.6372 45.5692L53.6332 45.5134C53.4931 44.1608 53.4011 42.8045 53.269 41.4259C54.2575 39.7685 55.2941 37.7396 56.2066 35.6475L56.3587 35.2536C57.1791 33.3622 57.8155 31.5599 58.3718 29.8394C58.5365 29.9474 58.7278 30.0151 58.9281 30.0363H58.9321L59.4964 30.0809C60.1768 30.1478 60.7771 29.6276 60.8331 28.8212L61.4414 21.6456V21.6382C61.4411 21.3495 61.3276 21.0707 61.1221 20.8539C60.9167 20.6372 60.6333 20.4972 60.3248 20.4602H60.2488C60.7871 16.7239 60.4569 12.9238 59.2803 9.31599L59.3323 9.5055C58.2034 7.17825 56.4866 5.13819 54.3274 3.55844C52.1682 1.97869 49.6305 0.905885 46.9295 0.431055L46.8255 0.416191C45.5155 0.175096 44.1862 0.0358835 42.8513 0H42.7672C41.3706 0.0234468 39.9796 0.170271 38.613 0.438487L38.757 0.416191C36.0581 0.88289 33.5186 1.94235 31.3505 3.50609C29.1824 5.06984 27.4487 7.09249 26.2942 9.40517L26.2502 9.5055C25.0983 13.1004 24.7912 16.8831 25.3497 20.5977L25.3337 20.4602C25.0244 20.4913 24.7384 20.6271 24.5302 20.8417C24.322 21.0562 24.2062 21.3345 24.2051 21.6233V21.6494L24.8134 28.8249C24.8694 29.6499 25.4778 30.1478 26.1341 30.0809L26.1381 30.0698Z" fill="white"/>
<path d="M85.7142 77.5607C85.4341 66.264 84.2174 63.7074 83.561 61.9758C83.3009 61.2809 83.0888 56.5839 74.7322 53.5368C69.6094 51.6639 62.9978 51.6268 57.4027 49.4306V55.5397C57.3985 58.6719 56.2203 61.7052 54.0704 64.119C51.9206 66.5328 48.933 68.1767 45.6203 68.7686L45.5282 68.7835C45.4682 69.1131 45.2855 69.4127 45.012 69.63C44.7384 69.8473 44.3914 69.9686 44.0314 69.9726H43.9594V74.5804C43.9594 76.7427 44.8845 78.8164 46.5312 80.3454C48.1779 81.8743 50.4114 82.7333 52.7402 82.7333C55.069 82.7333 57.3024 81.8743 58.9491 80.3454C60.5959 78.8164 61.521 76.7427 61.521 74.5804V71.3624C60.3123 71.1978 59.2104 70.6276 58.4239 69.7598C57.6374 68.8919 57.2207 67.7864 57.2526 66.6525C57.2846 65.5187 57.763 64.435 58.5974 63.6065C59.4317 62.778 60.5642 62.2621 61.7805 62.1565C62.9968 62.0509 64.2126 62.3628 65.198 63.0332C66.1834 63.7037 66.8699 64.6862 67.1278 65.7949C67.3857 66.9036 67.197 68.0616 66.5975 69.0499C65.998 70.0382 65.0291 70.7882 63.8743 71.158L63.8382 71.1692V74.7551C63.8382 77.489 62.6686 80.1109 60.5865 82.044C58.5045 83.9772 55.6806 85.0632 52.7362 85.0632C49.7917 85.0632 46.9679 83.9772 44.8858 82.044C42.8038 80.1109 41.6341 77.489 41.6341 74.7551V74.5693V74.5767V69.928C41.2911 69.907 40.966 69.7787 40.7116 69.5641C40.4572 69.3495 40.2887 69.0613 40.2333 68.7463V68.7389C36.9177 68.1518 33.9251 66.5124 31.7682 64.1017C29.6113 61.6909 28.4244 58.6588 28.4108 55.5248V49.3674C22.7918 51.6082 16.1401 51.6528 10.9893 53.5293C2.60872 56.5727 2.41662 61.2586 2.16047 61.9646C1.52012 63.7037 0.287449 66.2492 0.00729604 77.5532C-0.0407302 79.0396 0.00729609 81.3175 4.83394 83.3093C15.3437 87.1368 28.8831 88.3259 42.2304 89.1805H43.5111C56.8864 88.3333 70.4058 87.1479 80.9076 83.3093C85.7142 81.3287 85.7582 79.0619 85.7142 77.5607ZM26.9581 72.9528H21.9713V77.6015H18.4094V72.9677H13.4226V69.6605H18.4094V65.0303H21.9713V69.6605H26.9581V72.9528Z" fill="white"/>
<path d="M64.9377 66.7354C64.9372 66.0723 64.6531 65.4328 64.1478 64.9642C63.6425 64.4955 62.9574 64.2324 62.2433 64.2327C61.5291 64.2329 60.8442 64.4965 60.3393 64.9655C59.8344 65.4345 59.5508 66.0704 59.5508 66.7335C59.5508 67.3966 59.8344 68.0326 60.3393 68.5016C60.8442 68.9706 61.5291 69.2341 62.2433 69.2344C62.9574 69.2346 63.6425 68.9715 64.1478 68.5029C64.6531 68.0343 64.9372 67.3985 64.9377 66.7354Z" fill="white"/>
</svg>
