<svg width="81" height="85" viewBox="0 0 81 85" fill="none" xmlns="http://www.w3.org/2000/svg">
<path d="M76.95 68.0801H51.921C51.3163 66.2955 50.3411 64.6748 49.0662 63.3353C47.7912 61.9959 46.2486 60.9713 44.55 60.336V46.805H72.9C73.9741 46.805 75.0043 46.3568 75.7638 45.5588C76.5233 44.7608 76.95 43.6785 76.95 42.55C76.95 41.4215 76.5233 40.3393 75.7638 39.5413C75.0043 38.7433 73.9741 38.295 72.9 38.295H68.85V12.765C68.85 9.37952 67.5699 6.13269 65.2914 3.73879C63.0128 1.34488 59.9224 0 56.7 0H24.3C21.0776 0 17.9872 1.34488 15.7087 3.73879C13.4301 6.13269 12.15 9.37952 12.15 12.765V38.295H8.1C7.02587 38.295 5.99574 38.7433 5.23622 39.5413C4.4767 40.3393 4.05 41.4215 4.05 42.55C4.05 43.6785 4.4767 44.7608 5.23622 45.5588C5.99574 46.3568 7.02587 46.805 8.1 46.805H36.45V60.336C34.7514 60.9713 33.2088 61.9959 31.9338 63.3353C30.6589 64.6748 29.6837 66.2955 29.079 68.0801H4.05C2.97587 68.0801 1.94574 68.5284 1.18622 69.3263C0.426695 70.1243 0 71.2066 0 72.3351C0 73.4636 0.426695 74.5459 1.18622 75.3438C1.94574 76.1418 2.97587 76.5901 4.05 76.5901H29.079C29.9303 79.0544 31.4832 81.1835 33.5266 82.6882C35.5699 84.1928 38.0047 85 40.5 85C42.9953 85 45.4301 84.1928 47.4734 82.6882C49.5168 81.1835 51.0697 79.0544 51.921 76.5901H76.95C78.0241 76.5901 79.0543 76.1418 79.8138 75.3438C80.5733 74.5459 81 73.4636 81 72.3351C81 71.2066 80.5733 70.1243 79.8138 69.3263C79.0543 68.5284 78.0241 68.0801 76.95 68.0801ZM20.25 38.295V12.765C20.25 11.6365 20.6767 10.5542 21.4362 9.75627C22.1957 8.9583 23.2259 8.51001 24.3 8.51001H56.7C57.7741 8.51001 58.8043 8.9583 59.5638 9.75627C60.3233 10.5542 60.75 11.6365 60.75 12.765V38.295H20.25ZM40.5 76.5901C39.699 76.5901 38.916 76.3405 38.2499 75.873C37.5839 75.4054 37.0648 74.7409 36.7583 73.9634C36.4518 73.1859 36.3716 72.3304 36.5278 71.505C36.6841 70.6796 37.0698 69.9214 37.6362 69.3263C38.2026 68.7313 38.9243 68.326 39.7099 68.1618C40.4955 67.9977 41.3098 68.0819 42.0499 68.404C42.7899 68.726 43.4224 69.2714 43.8675 69.9711C44.3125 70.6709 44.55 71.4935 44.55 72.3351C44.55 73.4636 44.1233 74.5459 43.3638 75.3438C42.6043 76.1418 41.5741 76.5901 40.5 76.5901Z" fill="white"/>
</svg>
